<?xml version="1.0" encoding="UTF-8" standalone="no"?>
<!DOCTYPE svg PUBLIC "-//W3C//DTD SVG 1.1//EN"
 "http://www.w3.org/Graphics/SVG/1.1/DTD/svg11.dtd">
<!-- Generated by graphviz version 2.47.0 (20210316.0004)
 -->
<!-- Title: dependencies Pages: 1 -->
<svg width="2437pt" height="284pt"
 viewBox="0.00 0.00 2437.00 284.00" xmlns="http://www.w3.org/2000/svg" xmlns:xlink="http://www.w3.org/1999/xlink">
<g id="graph0" class="graph" transform="scale(1 1) rotate(0) translate(4 280)">
<title>dependencies</title>
<polygon fill="white" stroke="transparent" points="-4,4 -4,-280 2433,-280 2433,4 -4,4"/>
<text text-anchor="start" x="1193.51" y="-42.4" font-family="Times-12" font-weight="bold" font-size="14.00">Legend</text>
<polygon fill="#ffffb3" stroke="transparent" points="980.5,-10 980.5,-30 1000.5,-30 1000.5,-10 980.5,-10"/>
<text text-anchor="start" x="1004.13" y="-15.4" font-family="Times-12" font-size="14.00"> &#160;Declarations</text>
<polygon fill="#8dd3c7" stroke="transparent" points="1093.5,-10 1093.5,-30 1113.5,-30 1113.5,-10 1093.5,-10"/>
<text text-anchor="start" x="1117.23" y="-15.4" font-family="Times-12" font-size="14.00"> &#160;Module</text>
<polygon fill="#80b1d3" stroke="transparent" points="1179.5,-10 1179.5,-30 1199.5,-30 1199.5,-10 1179.5,-10"/>
<text text-anchor="start" x="1203.28" y="-15.4" font-family="Times-12" font-size="14.00"> &#160;Bootstrap</text>
<polygon fill="#fdb462" stroke="transparent" points="1276.5,-10 1276.5,-30 1296.5,-30 1296.5,-10 1276.5,-10"/>
<text text-anchor="start" x="1300.17" y="-15.4" font-family="Times-12" font-size="14.00"> &#160;Providers</text>
<polygon fill="#fb8072" stroke="transparent" points="1372.5,-10 1372.5,-30 1392.5,-30 1392.5,-10 1372.5,-10"/>
<text text-anchor="start" x="1396.23" y="-15.4" font-family="Times-12" font-size="14.00"> &#160;Exports</text>
<g id="clust1" class="cluster">
<title>cluster_AppModule</title>
<polygon fill="none" stroke="black" stroke-dasharray="1,5" points="8,-70 8,-268 2421,-268 2421,-70 8,-70"/>
</g>
<g id="clust2" class="cluster">
<title>cluster_AppModule_declarations</title>
<polygon fill="none" stroke="black" points="338,-78 338,-130 2413,-130 2413,-78 338,-78"/>
</g>
<g id="clust17" class="cluster">
<title>cluster_AppModule_imports</title>
<polygon fill="none" stroke="black" points="186,-78 186,-130 330,-130 330,-78 186,-78"/>
</g>
<g id="clust19" class="cluster">
<title>cluster_AppModule_bootstrap</title>
<polygon fill="none" stroke="black" points="1194,-208 1194,-260 1318,-260 1318,-208 1194,-208"/>
</g>
<g id="clust20" class="cluster">
<title>cluster_AppModule_providers</title>
<polygon fill="none" stroke="black" points="16,-78 16,-130 178,-130 178,-78 16,-78"/>
</g>
<!-- AboutComponent -->
<g id="node1" class="node">
<title>AboutComponent</title>
<polygon fill="#ffffb3" stroke="black" points="2405.33,-122 2288.67,-122 2288.67,-86 2405.33,-86 2405.33,-122"/>
<text text-anchor="middle" x="2347" y="-99.8" font-family="Times,serif" font-size="14.00">AboutComponent</text>
</g>
<!-- AppModule -->
<g id="node15" class="node">
<title>AppModule</title>
<polygon fill="#8dd3c7" stroke="black" points="1297.66,-187 1294.66,-191 1273.66,-191 1270.66,-187 1214.34,-187 1214.34,-151 1297.66,-151 1297.66,-187"/>
<text text-anchor="middle" x="1256" y="-164.8" font-family="Times,serif" font-size="14.00">AppModule</text>
</g>
<!-- AboutComponent&#45;&gt;AppModule -->
<g id="edge1" class="edge">
<title>AboutComponent&#45;&gt;AppModule</title>
<path fill="none" stroke="black" d="M2347,-122.32C2347,-145.66 2347,-183 2347,-183 2347,-183 1307.77,-183 1307.77,-183"/>
<polygon fill="black" stroke="black" points="1307.77,-179.5 1297.77,-183 1307.77,-186.5 1307.77,-179.5"/>
</g>
<!-- AppComponent -->
<g id="node2" class="node">
<title>AppComponent</title>
<polygon fill="#ffffb3" stroke="black" points="2270.94,-122 2165.06,-122 2165.06,-86 2270.94,-86 2270.94,-122"/>
<text text-anchor="middle" x="2218" y="-99.8" font-family="Times,serif" font-size="14.00">AppComponent</text>
</g>
<!-- AppComponent&#45;&gt;AppModule -->
<g id="edge2" class="edge">
<title>AppComponent&#45;&gt;AppModule</title>
<path fill="none" stroke="black" d="M2218,-122.29C2218,-144.21 2218,-178 2218,-178 2218,-178 1307.95,-178 1307.95,-178"/>
<polygon fill="black" stroke="black" points="1307.95,-174.5 1297.95,-178 1307.95,-181.5 1307.95,-174.5"/>
</g>
<!-- ContactComponent -->
<g id="node3" class="node">
<title>ContactComponent</title>
<polygon fill="#ffffb3" stroke="black" points="2147.38,-122 2022.62,-122 2022.62,-86 2147.38,-86 2147.38,-122"/>
<text text-anchor="middle" x="2085" y="-99.8" font-family="Times,serif" font-size="14.00">ContactComponent</text>
</g>
<!-- ContactComponent&#45;&gt;AppModule -->
<g id="edge3" class="edge">
<title>ContactComponent&#45;&gt;AppModule</title>
<path fill="none" stroke="black" d="M2085,-122.03C2085,-142.77 2085,-174 2085,-174 2085,-174 1307.68,-174 1307.68,-174"/>
<polygon fill="black" stroke="black" points="1307.68,-170.5 1297.68,-174 1307.68,-177.5 1307.68,-170.5"/>
</g>
<!-- ExperienceComponent -->
<g id="node4" class="node">
<title>ExperienceComponent</title>
<polygon fill="#ffffb3" stroke="black" points="2004.29,-122 1859.71,-122 1859.71,-86 2004.29,-86 2004.29,-122"/>
<text text-anchor="middle" x="1932" y="-99.8" font-family="Times,serif" font-size="14.00">ExperienceComponent</text>
</g>
<!-- ExperienceComponent&#45;&gt;AppModule -->
<g id="edge4" class="edge">
<title>ExperienceComponent&#45;&gt;AppModule</title>
<path fill="none" stroke="black" d="M1932,-122.11C1932,-141.34 1932,-169 1932,-169 1932,-169 1307.78,-169 1307.78,-169"/>
<polygon fill="black" stroke="black" points="1307.78,-165.5 1297.78,-169 1307.78,-172.5 1307.78,-165.5"/>
</g>
<!-- FooterComponent -->
<g id="node5" class="node">
<title>FooterComponent</title>
<polygon fill="#ffffb3" stroke="black" points="1841.88,-122 1724.12,-122 1724.12,-86 1841.88,-86 1841.88,-122"/>
<text text-anchor="middle" x="1783" y="-99.8" font-family="Times,serif" font-size="14.00">FooterComponent</text>
</g>
<!-- FooterComponent&#45;&gt;AppModule -->
<g id="edge5" class="edge">
<title>FooterComponent&#45;&gt;AppModule</title>
<path fill="none" stroke="black" d="M1783,-122.3C1783,-140.27 1783,-165 1783,-165 1783,-165 1307.79,-165 1307.79,-165"/>
<polygon fill="black" stroke="black" points="1307.79,-161.5 1297.79,-165 1307.79,-168.5 1307.79,-161.5"/>
</g>
<!-- ForgotPasswordComponent -->
<g id="node6" class="node">
<title>ForgotPasswordComponent</title>
<polygon fill="#ffffb3" stroke="black" points="1706.32,-122 1533.68,-122 1533.68,-86 1706.32,-86 1706.32,-122"/>
<text text-anchor="middle" x="1620" y="-99.8" font-family="Times,serif" font-size="14.00">ForgotPasswordComponent</text>
</g>
<!-- ForgotPasswordComponent&#45;&gt;AppModule -->
<g id="edge6" class="edge">
<title>ForgotPasswordComponent&#45;&gt;AppModule</title>
<path fill="none" stroke="black" d="M1620,-122.03C1620,-138.4 1620,-160 1620,-160 1620,-160 1307.76,-160 1307.76,-160"/>
<polygon fill="black" stroke="black" points="1307.76,-156.5 1297.76,-160 1307.76,-163.5 1307.76,-156.5"/>
</g>
<!-- HomeComponent -->
<g id="node7" class="node">
<title>HomeComponent</title>
<polygon fill="#ffffb3" stroke="black" points="1515.55,-122 1400.45,-122 1400.45,-86 1515.55,-86 1515.55,-122"/>
<text text-anchor="middle" x="1458" y="-99.8" font-family="Times,serif" font-size="14.00">HomeComponent</text>
</g>
<!-- HomeComponent&#45;&gt;AppModule -->
<g id="edge7" class="edge">
<title>HomeComponent&#45;&gt;AppModule</title>
<path fill="none" stroke="black" d="M1458,-122.19C1458,-137.18 1458,-156 1458,-156 1458,-156 1307.85,-156 1307.85,-156"/>
<polygon fill="black" stroke="black" points="1307.85,-152.5 1297.85,-156 1307.85,-159.5 1307.85,-152.5"/>
</g>
<!-- LoginComponent -->
<g id="node8" class="node">
<title>LoginComponent</title>
<polygon fill="#ffffb3" stroke="black" points="1382.28,-122 1267.72,-122 1267.72,-86 1382.28,-86 1382.28,-122"/>
<text text-anchor="middle" x="1325" y="-99.8" font-family="Times,serif" font-size="14.00">LoginComponent</text>
</g>
<!-- LoginComponent&#45;&gt;AppModule -->
<g id="edge8" class="edge">
<title>LoginComponent&#45;&gt;AppModule</title>
<path fill="none" stroke="black" d="M1282.72,-122.11C1282.72,-122.11 1282.72,-140.99 1282.72,-140.99"/>
<polygon fill="black" stroke="black" points="1279.22,-140.99 1282.72,-150.99 1286.22,-140.99 1279.22,-140.99"/>
</g>
<!-- NavbarComponent -->
<g id="node9" class="node">
<title>NavbarComponent</title>
<polygon fill="#ffffb3" stroke="black" points="1249.03,-122 1126.97,-122 1126.97,-86 1249.03,-86 1249.03,-122"/>
<text text-anchor="middle" x="1188" y="-99.8" font-family="Times,serif" font-size="14.00">NavbarComponent</text>
</g>
<!-- NavbarComponent&#45;&gt;AppModule -->
<g id="edge9" class="edge">
<title>NavbarComponent&#45;&gt;AppModule</title>
<path fill="none" stroke="black" d="M1231.72,-122.11C1231.72,-122.11 1231.72,-140.99 1231.72,-140.99"/>
<polygon fill="black" stroke="black" points="1228.22,-140.99 1231.72,-150.99 1235.22,-140.99 1228.22,-140.99"/>
</g>
<!-- PageNotFoundComponent -->
<g id="node10" class="node">
<title>PageNotFoundComponent</title>
<polygon fill="#ffffb3" stroke="black" points="1108.82,-122 943.18,-122 943.18,-86 1108.82,-86 1108.82,-122"/>
<text text-anchor="middle" x="1026" y="-99.8" font-family="Times,serif" font-size="14.00">PageNotFoundComponent</text>
</g>
<!-- PageNotFoundComponent&#45;&gt;AppModule -->
<g id="edge10" class="edge">
<title>PageNotFoundComponent&#45;&gt;AppModule</title>
<path fill="none" stroke="black" d="M1026,-122.19C1026,-137.18 1026,-156 1026,-156 1026,-156 1204.08,-156 1204.08,-156"/>
<polygon fill="black" stroke="black" points="1204.08,-159.5 1214.08,-156 1204.08,-152.5 1204.08,-159.5"/>
</g>
<!-- ProjectsComponent -->
<g id="node11" class="node">
<title>ProjectsComponent</title>
<polygon fill="#ffffb3" stroke="black" points="925.43,-122 798.57,-122 798.57,-86 925.43,-86 925.43,-122"/>
<text text-anchor="middle" x="862" y="-99.8" font-family="Times,serif" font-size="14.00">ProjectsComponent</text>
</g>
<!-- ProjectsComponent&#45;&gt;AppModule -->
<g id="edge11" class="edge">
<title>ProjectsComponent&#45;&gt;AppModule</title>
<path fill="none" stroke="black" d="M862,-122.03C862,-138.4 862,-160 862,-160 862,-160 1204.21,-160 1204.21,-160"/>
<polygon fill="black" stroke="black" points="1204.21,-163.5 1214.21,-160 1204.21,-156.5 1204.21,-163.5"/>
</g>
<!-- ResumeComponent -->
<g id="node12" class="node">
<title>ResumeComponent</title>
<polygon fill="#ffffb3" stroke="black" points="781.43,-122 654.57,-122 654.57,-86 781.43,-86 781.43,-122"/>
<text text-anchor="middle" x="718" y="-99.8" font-family="Times,serif" font-size="14.00">ResumeComponent</text>
</g>
<!-- ResumeComponent&#45;&gt;AppModule -->
<g id="edge12" class="edge">
<title>ResumeComponent&#45;&gt;AppModule</title>
<path fill="none" stroke="black" d="M718,-122.3C718,-140.27 718,-165 718,-165 718,-165 1204.23,-165 1204.23,-165"/>
<polygon fill="black" stroke="black" points="1204.23,-168.5 1214.23,-165 1204.23,-161.5 1204.23,-168.5"/>
</g>
<!-- SignupComponent -->
<g id="node13" class="node">
<title>SignupComponent</title>
<polygon fill="#ffffb3" stroke="black" points="636.51,-122 515.49,-122 515.49,-86 636.51,-86 636.51,-122"/>
<text text-anchor="middle" x="576" y="-99.8" font-family="Times,serif" font-size="14.00">SignupComponent</text>
</g>
<!-- SignupComponent&#45;&gt;AppModule -->
<g id="edge13" class="edge">
<title>SignupComponent&#45;&gt;AppModule</title>
<path fill="none" stroke="black" d="M576,-122.11C576,-141.34 576,-169 576,-169 576,-169 1204.23,-169 1204.23,-169"/>
<polygon fill="black" stroke="black" points="1204.23,-172.5 1214.23,-169 1204.23,-165.5 1204.23,-172.5"/>
</g>
<!-- VerifyEmailComponent -->
<g id="node14" class="node">
<title>VerifyEmailComponent</title>
<polygon fill="#ffffb3" stroke="black" points="497.8,-122 346.2,-122 346.2,-86 497.8,-86 497.8,-122"/>
<text text-anchor="middle" x="422" y="-99.8" font-family="Times,serif" font-size="14.00">VerifyEmailComponent</text>
</g>
<!-- VerifyEmailComponent&#45;&gt;AppModule -->
<g id="edge14" class="edge">
<title>VerifyEmailComponent&#45;&gt;AppModule</title>
<path fill="none" stroke="black" d="M422,-122.03C422,-142.77 422,-174 422,-174 422,-174 1204.07,-174 1204.07,-174"/>
<polygon fill="black" stroke="black" points="1204.07,-177.5 1214.07,-174 1204.07,-170.5 1204.07,-177.5"/>
</g>
<!-- AppComponent  -->
<g id="node17" class="node">
<title>AppComponent </title>
<polygon fill="#80b1d3" stroke="black" points="1310.44,-252 1201.56,-252 1201.56,-216 1310.44,-216 1310.44,-252"/>
<text text-anchor="middle" x="1256" y="-229.8" font-family="Times,serif" font-size="14.00">AppComponent </text>
</g>
<!-- AppModule&#45;&gt;AppComponent  -->
<g id="edge16" class="edge">
<title>AppModule&#45;&gt;AppComponent </title>
<path fill="none" stroke="black" stroke-dasharray="1,5" d="M1256,-187.11C1256,-187.11 1256,-205.99 1256,-205.99"/>
<polygon fill="black" stroke="black" points="1252.5,-205.99 1256,-215.99 1259.5,-205.99 1252.5,-205.99"/>
</g>
<!-- AppRoutingModule -->
<g id="node16" class="node">
<title>AppRoutingModule</title>
<polygon fill="#8dd3c7" stroke="black" points="322.27,-122 319.27,-126 298.27,-126 295.27,-122 193.73,-122 193.73,-86 322.27,-86 322.27,-122"/>
<text text-anchor="middle" x="258" y="-99.8" font-family="Times,serif" font-size="14.00">AppRoutingModule</text>
</g>
<!-- AppRoutingModule&#45;&gt;AppModule -->
<g id="edge15" class="edge">
<title>AppRoutingModule&#45;&gt;AppModule</title>
<path fill="none" stroke="black" d="M258,-122.29C258,-144.21 258,-178 258,-178 258,-178 1204.07,-178 1204.07,-178"/>
<polygon fill="black" stroke="black" points="1204.07,-181.5 1214.07,-178 1204.07,-174.5 1204.07,-181.5"/>
</g>
<!-- AuthInterceptor -->
<g id="node18" class="node">
<title>AuthInterceptor</title>
<ellipse fill="#fdb462" stroke="black" cx="97" cy="-104" rx="72.91" ry="18"/>
<text text-anchor="middle" x="97" y="-99.8" font-family="Times,serif" font-size="14.00">AuthInterceptor</text>
</g>
<!-- AuthInterceptor&#45;&gt;AppModule -->
<g id="edge17" class="edge">
<title>AuthInterceptor&#45;&gt;AppModule</title>
<path fill="none" stroke="black" d="M97,-122.32C97,-145.66 97,-183 97,-183 97,-183 1204.07,-183 1204.07,-183"/>
<polygon fill="black" stroke="black" points="1204.07,-186.5 1214.07,-183 1204.07,-179.5 1204.07,-186.5"/>
</g>
</g>
</svg>
